<svg xmlns="http://www.w3.org/2000/svg" width="109" height="27" fill="none" viewBox="0 0 109 27">
    <path fill="currentColor" d="M6.264 1.304H10.44V0.799998H0.36V1.304H4.536V24.452C4.536 25.028 4.5 25.352 4.176 26H6.624C6.3 25.352 6.264 25.028 6.264 24.452V1.304ZM21.089 15.488V26H23.177C22.853 25.352 22.817 25.028 22.817 24.452V0.799998H21.089V14.984H14.321V0.799998H12.593V26H14.321V15.488H21.089ZM28.6732 25.496V12.356H34.9372V11.852H28.6732V1.304H34.9372V0.799998H26.5852C26.9092 1.448 26.9452 1.772 26.9452 2.348V26H37.0972C37.7092 26 38.1772 25.856 38.6812 25.46L38.3932 25.064C37.9612 25.352 37.4932 25.496 36.9532 25.496H28.6732ZM46.4212 26C45.9892 25.388 45.9172 24.848 45.8452 24.416L41.6692 1.916C41.5612 1.304 41.0212 0.799998 40.4092 0.799998H38.7532C39.0772 1.484 39.1132 1.916 38.9332 2.96L35.4772 22.544H35.9812L36.5932 19.124H43.1092L44.0812 24.416C44.1892 24.956 44.1892 25.388 43.9372 26H46.4212ZM43.0012 18.62H36.7012L39.7612 1.484C39.7612 1.484 39.7612 1.448 39.7972 1.448C39.8332 1.448 39.8332 1.484 39.8332 1.484L43.0012 18.62ZM53.057 1.304H57.233V0.799998H47.153V1.304H51.329V24.452C51.329 25.028 51.293 25.352 50.969 26H53.417C53.093 25.352 53.057 25.028 53.057 24.452V1.304ZM81.7419 24.74C80.6259 25.496 79.3659 25.856 77.5659 25.856C74.1819 25.856 72.1299 23.768 70.0779 20.924C67.8099 17.792 66.2979 15.992 64.1019 15.308C67.1259 14.66 69.2139 12.068 69.2139 8.144C69.2139 3.572 66.6939 0.799998 62.5179 0.799998H59.3859C59.7099 1.448 59.7459 1.772 59.7459 2.348V26H61.4739V15.488H61.7259C65.0019 15.488 65.6139 17.828 68.5299 21.752C70.9779 25.064 73.3539 26.432 77.3139 26.432C79.0779 26.432 80.6979 26.036 82.0299 25.172L81.7419 24.74ZM73.0659 20.816H80.7699V20.312H74.7939V9.116H80.7699V8.612H74.7939V1.304H80.7699V0.799998H72.7059C73.0299 1.448 73.0659 1.772 73.0659 2.348V20.816ZM61.4739 14.984V1.304H62.0859C66.0459 1.304 67.3419 4.004 67.3419 8.144C67.3419 12.284 65.6859 14.984 62.0859 14.984H61.4739ZM84.1703 26.144C84.7463 26.144 85.2143 25.676 85.2143 25.1C85.2143 24.524 84.7463 24.056 84.1703 24.056C83.5942 24.056 83.1263 24.524 83.1263 25.1C83.1263 25.676 83.5942 26.144 84.1703 26.144ZM95.5699 0.799998H93.8419V21.032C93.8419 23.3 93.1219 25.748 90.3859 25.748C88.8739 25.748 87.9019 24.848 87.3259 23.516L86.2819 24.128C87.0019 25.316 88.3339 26.252 90.3859 26.252C93.6619 26.252 95.5699 24.2 95.5699 21.212V0.799998ZM106.059 3.284C105.483 1.952 104.511 1.052 102.999 1.052C100.947 1.052 100.083 2.888 100.083 4.724C100.083 6.092 100.551 7.424 101.379 8.72L106.383 16.388C107.535 18.152 108.111 19.772 108.111 21.356C108.111 24.236 106.131 26.252 103.035 26.252C99.9388 26.252 97.7428 24.272 97.7428 21.752V20.852H99.5788V21.572C99.5788 23.84 100.695 25.748 103.035 25.748C105.375 25.748 106.311 23.84 106.311 21.572C106.311 20.204 105.807 18.728 104.691 17.036L99.6868 9.332C98.7148 7.82 98.3548 6.596 98.3548 4.976C98.3548 2.384 100.263 0.547999 102.999 0.547999C105.051 0.547999 106.383 1.484 107.103 2.672L106.059 3.284Z"/>
    <path fill="currentColor" d="M6.264 1.304V1.054H6.014V1.304H6.264ZM10.44 1.304V1.554H10.69V1.304H10.44ZM10.44 0.799998H10.69V0.549998H10.44V0.799998ZM0.36 0.799998V0.549998H0.11V0.799998H0.36ZM0.36 1.304H0.11V1.554H0.36V1.304ZM4.536 1.304H4.786V1.054H4.536V1.304ZM4.176 26L3.95239 25.8882L3.77149 26.25H4.176V26ZM6.624 26V26.25H7.02851L6.84761 25.8882L6.624 26ZM6.264 1.554H10.44V1.054H6.264V1.554ZM10.69 1.304V0.799998H10.19V1.304H10.69ZM10.44 0.549998H0.36V1.05H10.44V0.549998ZM0.11 0.799998V1.304H0.61V0.799998H0.11ZM0.36 1.554H4.536V1.054H0.36V1.554ZM4.286 1.304V24.452H4.786V1.304H4.286ZM4.286 24.452C4.286 24.7363 4.2768 24.9398 4.23291 25.1473C4.18926 25.3536 4.10859 25.5758 3.95239 25.8882L4.39961 26.1118C4.56741 25.7762 4.66674 25.5124 4.72209 25.2507C4.7772 24.9902 4.786 24.7437 4.786 24.452H4.286ZM4.176 26.25H6.624V25.75H4.176V26.25ZM6.84761 25.8882C6.69141 25.5758 6.61074 25.3536 6.56709 25.1473C6.5232 24.9398 6.514 24.7363 6.514 24.452H6.014C6.014 24.7437 6.0228 24.9902 6.07791 25.2507C6.13326 25.5124 6.23259 25.7762 6.40039 26.1118L6.84761 25.8882ZM6.514 24.452V1.304H6.014V24.452H6.514ZM21.089 15.488H21.339V15.238H21.089V15.488ZM21.089 26H20.839V26.25H21.089V26ZM23.177 26V26.25H23.5815L23.4006 25.8882L23.177 26ZM22.817 0.799998H23.067V0.549998H22.817V0.799998ZM21.089 0.799998V0.549998H20.839V0.799998H21.089ZM21.089 14.984V15.234H21.339V14.984H21.089ZM14.321 14.984H14.071V15.234H14.321V14.984ZM14.321 0.799998H14.571V0.549998H14.321V0.799998ZM12.593 0.799998V0.549998H12.343V0.799998H12.593ZM12.593 26H12.343V26.25H12.593V26ZM14.321 26V26.25H14.571V26H14.321ZM14.321 15.488V15.238H14.071V15.488H14.321ZM20.839 15.488V26H21.339V15.488H20.839ZM21.089 26.25H23.177V25.75H21.089V26.25ZM23.4006 25.8882C23.2444 25.5758 23.1637 25.3536 23.1201 25.1473C23.0762 24.9398 23.067 24.7363 23.067 24.452H22.567C22.567 24.7437 22.5758 24.9902 22.6309 25.2507C22.6862 25.5124 22.7856 25.7762 22.9534 26.1118L23.4006 25.8882ZM23.067 24.452V0.799998H22.567V24.452H23.067ZM22.817 0.549998H21.089V1.05H22.817V0.549998ZM20.839 0.799998V14.984H21.339V0.799998H20.839ZM21.089 14.734H14.321V15.234H21.089V14.734ZM14.571 14.984V0.799998H14.071V14.984H14.571ZM14.321 0.549998H12.593V1.05H14.321V0.549998ZM12.343 0.799998V26H12.843V0.799998H12.343ZM12.593 26.25H14.321V25.75H12.593V26.25ZM14.571 26V15.488H14.071V26H14.571ZM14.321 15.738H21.089V15.238H14.321V15.738ZM28.6732 25.496H28.4232V25.746H28.6732V25.496ZM28.6732 12.356V12.106H28.4232V12.356H28.6732ZM34.9372 12.356V12.606H35.1872V12.356H34.9372ZM34.9372 11.852H35.1872V11.602H34.9372V11.852ZM28.6732 11.852H28.4232V12.102H28.6732V11.852ZM28.6732 1.304V1.054H28.4232V1.304H28.6732ZM34.9372 1.304V1.554H35.1872V1.304H34.9372ZM34.9372 0.799998H35.1872V0.549998H34.9372V0.799998ZM26.5852 0.799998V0.549998H26.1806L26.3615 0.911801L26.5852 0.799998ZM26.9452 26H26.6952V26.25H26.9452V26ZM38.6812 25.46L38.8356 25.6566L39.025 25.5078L38.8833 25.313L38.6812 25.46ZM38.3932 25.064L38.5953 24.917L38.4542 24.7229L38.2545 24.856L38.3932 25.064ZM46.4212 26V26.25H46.9036L46.6254 25.8558L46.4212 26ZM45.8452 24.416L46.0918 24.3749L46.091 24.3704L45.8452 24.416ZM41.6692 1.916L41.423 1.95945L41.4234 1.96162L41.6692 1.916ZM38.7532 0.799998V0.549998H38.3581L38.5272 0.90702L38.7532 0.799998ZM38.9332 2.96L39.1794 3.00344L39.1795 3.00248L38.9332 2.96ZM35.4772 22.544L35.231 22.5006L35.1792 22.794H35.4772V22.544ZM35.9812 22.544V22.794H36.1904L36.2272 22.588L35.9812 22.544ZM36.5932 19.124V18.874H36.3839L36.3471 19.08L36.5932 19.124ZM43.1092 19.124L43.355 19.0788L43.3174 18.874H43.1092V19.124ZM44.0812 24.416L43.8352 24.4612L43.836 24.465L44.0812 24.416ZM43.9372 26L43.706 25.9048L43.5639 26.25H43.9372V26ZM43.0012 18.62V18.87H43.3016L43.247 18.5746L43.0012 18.62ZM36.7012 18.62L36.4551 18.5761L36.4026 18.87H36.7012V18.62ZM39.7612 1.484L40.0073 1.52795L40.0112 1.50614V1.484H39.7612ZM39.8332 1.484H39.5832V1.50691L39.5873 1.52945L39.8332 1.484ZM28.9232 25.496V12.356H28.4232V25.496H28.9232ZM28.6732 12.606H34.9372V12.106H28.6732V12.606ZM35.1872 12.356V11.852H34.6872V12.356H35.1872ZM34.9372 11.602H28.6732V12.102H34.9372V11.602ZM28.9232 11.852V1.304H28.4232V11.852H28.9232ZM28.6732 1.554H34.9372V1.054H28.6732V1.554ZM35.1872 1.304V0.799998H34.6872V1.304H35.1872ZM34.9372 0.549998H26.5852V1.05H34.9372V0.549998ZM26.3615 0.911801C26.5177 1.22419 26.5984 1.44638 26.6421 1.65274C26.686 1.86019 26.6952 2.06374 26.6952 2.348H27.1952C27.1952 2.05626 27.1864 1.8098 27.1312 1.54926C27.0759 1.28762 26.9766 1.02381 26.8088 0.688195L26.3615 0.911801ZM26.6952 2.348V26H27.1952V2.348H26.6952ZM26.9452 26.25H37.0972V25.75H26.9452V26.25ZM37.0972 26.25C37.7611 26.25 38.2845 26.0896 38.8356 25.6566L38.5267 25.2634C38.0698 25.6224 37.6572 25.75 37.0972 25.75V26.25ZM38.8833 25.313L38.5953 24.917L38.191 25.211L38.479 25.607L38.8833 25.313ZM38.2545 24.856C37.8638 25.1165 37.4441 25.246 36.9532 25.246V25.746C37.5422 25.746 38.0585 25.5875 38.5318 25.272L38.2545 24.856ZM36.9532 25.246H28.6732V25.746H36.9532V25.246ZM46.6254 25.8558C46.2298 25.2954 46.1639 24.8079 46.0918 24.3749L45.5986 24.4571C45.6704 24.8881 45.7485 25.4806 46.2169 26.1442L46.6254 25.8558ZM46.091 24.3704L41.915 1.87038L41.4234 1.96162L45.5994 24.4616L46.091 24.3704ZM41.9154 1.87255C41.789 1.15628 41.1573 0.549998 40.4092 0.549998V1.05C40.885 1.05 41.3334 1.45171 41.423 1.95944L41.9154 1.87255ZM40.4092 0.549998H38.7532V1.05H40.4092V0.549998ZM38.5272 0.90702C38.6811 1.23185 38.7593 1.48098 38.783 1.76576C38.8073 2.05708 38.7759 2.40055 38.6868 2.91752L39.1795 3.00248C39.2704 2.47545 39.311 2.08092 39.2813 1.72424C39.251 1.36102 39.1492 1.05214 38.9791 0.692977L38.5272 0.90702ZM38.687 2.91655L35.231 22.5006L35.7234 22.5874L39.1794 3.00344L38.687 2.91655ZM35.4772 22.794H35.9812V22.294H35.4772V22.794ZM36.2272 22.588L36.8392 19.168L36.3471 19.08L35.7351 22.5L36.2272 22.588ZM36.5932 19.374H43.1092V18.874H36.5932V19.374ZM42.8633 19.1692L43.8353 24.4612L44.327 24.3708L43.355 19.0788L42.8633 19.1692ZM43.836 24.465C43.9361 24.9656 43.936 25.3463 43.706 25.9048L44.1683 26.0952C44.4423 25.4297 44.4422 24.9464 44.3263 24.367L43.836 24.465ZM43.9372 26.25H46.4212V25.75H43.9372V26.25ZM43.0012 18.37H36.7012V18.87H43.0012V18.37ZM36.9473 18.6639L40.0073 1.52795L39.515 1.44005L36.4551 18.5761L36.9473 18.6639ZM39.7612 1.484C40.0112 1.484 40.0112 1.48412 40.0112 1.48424C40.0112 1.48428 40.0112 1.48441 40.0112 1.48449C40.0112 1.48465 40.0112 1.48481 40.0112 1.48498C40.0112 1.4853 40.0112 1.48563 40.0112 1.48596C40.0111 1.48661 40.0111 1.48727 40.0111 1.48793C40.0111 1.48924 40.0111 1.49058 40.011 1.49192C40.0109 1.49461 40.0108 1.49739 40.0106 1.50026C40.0102 1.50593 40.0095 1.51238 40.0083 1.51947C40.0061 1.53247 40.0014 1.55363 39.9893 1.5778C39.9767 1.60296 39.9539 1.63572 39.915 1.66164C39.8746 1.68859 39.8319 1.698 39.7972 1.698V1.198C39.7444 1.198 39.6882 1.2119 39.6377 1.24561C39.5887 1.27827 39.5591 1.32003 39.542 1.35419C39.5255 1.38737 39.5184 1.41752 39.5151 1.43727C39.5134 1.44774 39.5124 1.45701 39.5119 1.46464C39.5116 1.4685 39.5114 1.47205 39.5113 1.47526C39.5112 1.47687 39.5112 1.47841 39.5112 1.47986C39.5112 1.48059 39.5112 1.4813 39.5112 1.48199C39.5112 1.48233 39.5112 1.48267 39.5112 1.48301C39.5112 1.48317 39.5112 1.48334 39.5112 1.48351C39.5112 1.48359 39.5112 1.48371 39.5112 1.48375C39.5112 1.48388 39.5112 1.484 39.7612 1.484ZM39.7972 1.698C39.7624 1.698 39.7197 1.68859 39.6793 1.66164C39.6404 1.63572 39.6176 1.60296 39.605 1.5778C39.593 1.55362 39.5882 1.53247 39.586 1.51947C39.5848 1.51238 39.5841 1.50593 39.5837 1.50026C39.5835 1.49739 39.5834 1.49461 39.5833 1.49192C39.5832 1.49058 39.5832 1.48924 39.5832 1.48793C39.5832 1.48727 39.5832 1.48661 39.5832 1.48596C39.5832 1.48563 39.5832 1.4853 39.5832 1.48498C39.5832 1.48481 39.5832 1.48465 39.5832 1.48449C39.5832 1.48441 39.5832 1.48428 39.5832 1.48424C39.5832 1.48412 39.5832 1.484 39.8332 1.484C40.0832 1.484 40.0832 1.48388 40.0832 1.48375C40.0832 1.48371 40.0832 1.48359 40.0832 1.48351C40.0832 1.48334 40.0832 1.48317 40.0832 1.48301C40.0832 1.48267 40.0832 1.48233 40.0831 1.48199C40.0831 1.4813 40.0831 1.48059 40.0831 1.47986C40.0831 1.47841 40.0831 1.47688 40.083 1.47527C40.0829 1.47205 40.0827 1.4685 40.0825 1.46464C40.0819 1.45701 40.0809 1.44774 40.0792 1.43727C40.0759 1.41753 40.0689 1.38737 40.0523 1.35419C40.0352 1.32004 40.0056 1.27828 39.9566 1.24561C39.9061 1.2119 39.8499 1.198 39.7972 1.198V1.698ZM39.5873 1.52945L42.7553 18.6654L43.247 18.5746L40.079 1.43855L39.5873 1.52945ZM53.057 1.304V1.054H52.807V1.304H53.057ZM57.233 1.304V1.554H57.483V1.304H57.233ZM57.233 0.799998H57.483V0.549998H57.233V0.799998ZM47.153 0.799998V0.549998H46.903V0.799998H47.153ZM47.153 1.304H46.903V1.554H47.153V1.304ZM51.329 1.304H51.579V1.054H51.329V1.304ZM50.969 26L50.7454 25.8882L50.5645 26.25H50.969V26ZM53.417 26V26.25H53.8215L53.6406 25.8882L53.417 26ZM53.057 1.554H57.233V1.054H53.057V1.554ZM57.483 1.304V0.799998H56.983V1.304H57.483ZM57.233 0.549998H47.153V1.05H57.233V0.549998ZM46.903 0.799998V1.304H47.403V0.799998H46.903ZM47.153 1.554H51.329V1.054H47.153V1.554ZM51.079 1.304V24.452H51.579V1.304H51.079ZM51.079 24.452C51.079 24.7363 51.0698 24.9398 51.0259 25.1473C50.9822 25.3536 50.9016 25.5758 50.7454 25.8882L51.1926 26.1118C51.3604 25.7762 51.4597 25.5124 51.5151 25.2507C51.5702 24.9902 51.579 24.7437 51.579 24.452H51.079ZM50.969 26.25H53.417V25.75H50.969V26.25ZM53.6406 25.8882C53.4844 25.5758 53.4037 25.3536 53.3601 25.1473C53.3162 24.9398 53.307 24.7363 53.307 24.452H52.807C52.807 24.7437 52.8158 24.9902 52.8709 25.2507C52.9262 25.5124 53.0256 25.7762 53.1934 26.1118L53.6406 25.8882ZM53.307 24.452V1.304H52.807V24.452H53.307ZM81.7419 24.74L81.95 24.6013L81.8102 24.3918L81.6017 24.533L81.7419 24.74ZM70.0779 20.924L70.2807 20.7777L70.2804 20.7774L70.0779 20.924ZM64.1019 15.308L64.0496 15.0635L63.1176 15.2633L64.0276 15.5467L64.1019 15.308ZM59.3859 0.799998V0.549998H58.9814L59.1623 0.911801L59.3859 0.799998ZM59.7459 26H59.4959V26.25H59.7459V26ZM61.4739 26V26.25H61.7239V26H61.4739ZM61.4739 15.488V15.238H61.2239V15.488H61.4739ZM68.5299 21.752L68.731 21.6034L68.7306 21.6029L68.5299 21.752ZM82.0299 25.172L82.166 25.3817L82.3784 25.244L82.238 25.0333L82.0299 25.172ZM73.0659 20.816H72.8159V21.066H73.0659V20.816ZM80.7699 20.816V21.066H81.0199V20.816H80.7699ZM80.7699 20.312H81.0199V20.062H80.7699V20.312ZM74.7939 20.312H74.5439V20.562H74.7939V20.312ZM74.7939 9.116V8.866H74.5439V9.116H74.7939ZM80.7699 9.116V9.366H81.0199V9.116H80.7699ZM80.7699 8.612H81.0199V8.362H80.7699V8.612ZM74.7939 8.612H74.5439V8.862H74.7939V8.612ZM74.7939 1.304V1.054H74.5439V1.304H74.7939ZM80.7699 1.304V1.554H81.0199V1.304H80.7699ZM80.7699 0.799998H81.0199V0.549998H80.7699V0.799998ZM72.7059 0.799998V0.549998H72.3014L72.4823 0.911801L72.7059 0.799998ZM61.4739 14.984H61.2239V15.234H61.4739V14.984ZM61.4739 1.304V1.054H61.2239V1.304H61.4739ZM81.6017 24.533C80.536 25.255 79.3279 25.606 77.5659 25.606V26.106C79.404 26.106 80.7159 25.737 81.8821 24.947L81.6017 24.533ZM77.5659 25.606C74.3129 25.606 72.3265 23.6131 70.2807 20.7777L69.8752 21.0703C71.9334 23.9229 74.0509 26.106 77.5659 26.106V25.606ZM70.2804 20.7774C68.0208 17.6569 66.464 15.7819 64.1763 15.0693L64.0276 15.5467C66.1319 16.2021 67.5991 17.9271 69.8755 21.0706L70.2804 20.7774ZM64.1543 15.5525C67.3115 14.8759 69.4639 12.1665 69.4639 8.144H68.9639C68.9639 11.9695 66.9403 14.4441 64.0496 15.0635L64.1543 15.5525ZM69.4639 8.144C69.4639 5.81358 68.8213 3.91137 67.6167 2.58913C66.4095 1.26397 64.6636 0.549998 62.5179 0.549998V1.05C64.5482 1.05 66.1504 1.72203 67.2471 2.92586C68.3465 4.13263 68.9639 5.90242 68.9639 8.144H69.4639ZM62.5179 0.549998H59.3859V1.05H62.5179V0.549998ZM59.1623 0.911801C59.3185 1.22419 59.3992 1.44638 59.4429 1.65274C59.4867 1.86019 59.4959 2.06374 59.4959 2.348H59.9959C59.9959 2.05626 59.9871 1.8098 59.932 1.54926C59.8767 1.28762 59.7774 1.02381 59.6095 0.688195L59.1623 0.911801ZM59.4959 2.348V26H59.9959V2.348H59.4959ZM59.7459 26.25H61.4739V25.75H59.7459V26.25ZM61.7239 26V15.488H61.2239V26H61.7239ZM61.4739 15.738H61.7259V15.238H61.4739V15.738ZM61.7259 15.738C62.5137 15.738 63.1267 15.8783 63.6496 16.1387C64.1739 16.3998 64.6235 16.7895 65.0736 17.3117C65.5257 17.8363 65.97 18.4843 66.4899 19.2573C67.0075 20.0271 67.596 20.9144 68.3293 21.9011L68.7306 21.6029C68.0058 20.6276 67.4244 19.7509 66.9048 18.9783C66.3874 18.209 65.9271 17.5362 65.4523 16.9853C64.9754 16.432 64.4755 15.9914 63.8725 15.6912C63.2681 15.3902 62.5761 15.238 61.7259 15.238V15.738ZM68.3289 21.9006C69.5655 23.5736 70.7973 24.7742 72.2358 25.5538C73.6764 26.3345 75.3039 26.682 77.3139 26.682V26.182C75.364 26.182 73.8235 25.8455 72.4741 25.1142C71.1225 24.3818 69.9424 23.2424 68.731 21.6034L68.3289 21.9006ZM77.3139 26.682C79.1145 26.682 80.7846 26.2778 82.166 25.3817L81.8939 24.9623C80.6112 25.7942 79.0414 26.182 77.3139 26.182V26.682ZM82.238 25.0333L81.95 24.6013L81.5339 24.8787L81.8219 25.3107L82.238 25.0333ZM73.0659 21.066H80.7699V20.566H73.0659V21.066ZM81.0199 20.816V20.312H80.5199V20.816H81.0199ZM80.7699 20.062H74.7939V20.562H80.7699V20.062ZM75.0439 20.312V9.116H74.5439V20.312H75.0439ZM74.7939 9.366H80.7699V8.866H74.7939V9.366ZM81.0199 9.116V8.612H80.5199V9.116H81.0199ZM80.7699 8.362H74.7939V8.862H80.7699V8.362ZM75.0439 8.612V1.304H74.5439V8.612H75.0439ZM74.7939 1.554H80.7699V1.054H74.7939V1.554ZM81.0199 1.304V0.799998H80.5199V1.304H81.0199ZM80.7699 0.549998H72.7059V1.05H80.7699V0.549998ZM72.4823 0.911801C72.6385 1.22419 72.7192 1.44638 72.7628 1.65274C72.8067 1.86019 72.8159 2.06374 72.8159 2.348H73.3159C73.3159 2.05626 73.3071 1.8098 73.252 1.54926C73.1967 1.28762 73.0974 1.02381 72.9295 0.688195L72.4823 0.911801ZM72.8159 2.348V20.816H73.3159V2.348H72.8159ZM61.7239 14.984V1.304H61.2239V14.984H61.7239ZM61.4739 1.554H62.0859V1.054H61.4739V1.554ZM62.0859 1.554C64.0018 1.554 65.2299 2.20219 65.9929 3.31303C66.7688 4.44284 67.0919 6.09093 67.0919 8.144H67.5919C67.5919 6.05707 67.2671 4.28516 66.405 3.02997C65.5299 1.75581 64.1301 1.054 62.0859 1.054V1.554ZM67.0919 8.144C67.0919 10.1866 66.6825 11.8367 65.8615 12.9698C65.0497 14.0903 63.815 14.734 62.0859 14.734V15.234C63.9569 15.234 65.3502 14.5277 66.2664 13.2632C67.1734 12.0113 67.5919 10.2414 67.5919 8.144H67.0919ZM62.0859 14.734H61.4739V15.234H62.0859V14.734ZM84.1702 26.394C84.8843 26.394 85.4642 25.8141 85.4642 25.1H84.9642C84.9642 25.5379 84.6082 25.894 84.1702 25.894V26.394ZM85.4642 25.1C85.4642 24.3859 84.8843 23.806 84.1702 23.806V24.306C84.6082 24.306 84.9642 24.6621 84.9642 25.1H85.4642ZM84.1702 23.806C83.4562 23.806 82.8763 24.3859 82.8763 25.1H83.3763C83.3763 24.6621 83.7323 24.306 84.1702 24.306V23.806ZM82.8763 25.1C82.8763 25.8141 83.4562 26.394 84.1702 26.394V25.894C83.7323 25.894 83.3763 25.5379 83.3763 25.1H82.8763ZM95.5699 0.799998H95.8199V0.549998H95.5699V0.799998ZM93.8419 0.799998V0.549998H93.5919V0.799998H93.8419ZM87.3259 23.516L87.5553 23.4168L87.4432 23.1574L87.1994 23.3003L87.3259 23.516ZM86.2819 24.128L86.1554 23.9123L85.9366 24.0406L86.0681 24.2576L86.2819 24.128ZM95.5699 0.549998H93.8419V1.05H95.5699V0.549998ZM93.5919 0.799998V21.032H94.0919V0.799998H93.5919ZM93.5919 21.032C93.5919 22.1471 93.4136 23.2745 92.9239 24.1146C92.445 24.9361 91.6617 25.498 90.3859 25.498V25.998C91.846 25.998 92.7907 25.3359 93.3559 24.3664C93.9101 23.4155 94.0919 22.1849 94.0919 21.032H93.5919ZM90.3859 25.498C89.6834 25.498 89.1168 25.2903 88.6582 24.9341C88.1963 24.5752 87.8317 24.0559 87.5553 23.4168L87.0964 23.6152C87.396 24.3081 87.8054 24.9048 88.3515 25.3289C88.901 25.7557 89.5764 25.998 90.3859 25.998V25.498ZM87.1994 23.3003L86.1554 23.9123L86.4083 24.3437L87.4523 23.7317L87.1994 23.3003ZM86.0681 24.2576C86.8334 25.5204 88.2466 26.502 90.3859 26.502V26.002C88.4212 26.002 87.1703 25.1116 86.4957 23.9984L86.0681 24.2576ZM90.3859 26.502C92.077 26.502 93.4412 25.9712 94.3831 25.0293C95.3247 24.0877 95.8199 22.7598 95.8199 21.212H95.3199C95.3199 22.6522 94.861 23.8443 94.0296 24.6757C93.1985 25.5068 91.9707 26.002 90.3859 26.002V26.502ZM95.8199 21.212V0.799998H95.3199V21.212H95.8199ZM106.059 3.284L105.829 3.38323L105.941 3.64256L106.185 3.49967L106.059 3.284ZM101.379 8.72L101.168 8.8546L101.169 8.85663L101.379 8.72ZM106.383 16.388L106.173 16.5246L106.173 16.5247L106.383 16.388ZM97.7428 20.852V20.602H97.4928V20.852H97.7428ZM99.5788 20.852H99.8288V20.602H99.5788V20.852ZM104.691 17.036L104.481 17.1722L104.482 17.1736L104.691 17.036ZM99.6868 9.332L99.4765 9.46719L99.4772 9.46818L99.6868 9.332ZM107.103 2.672L107.229 2.88767L107.448 2.75938L107.317 2.54242L107.103 2.672ZM106.288 3.18477C105.989 2.49193 105.579 1.89524 105.033 1.47107C104.484 1.04426 103.808 0.801999 102.999 0.801999V1.302C103.701 1.302 104.268 1.50974 104.726 1.86593C105.188 2.22476 105.553 2.74407 105.829 3.38323L106.288 3.18477ZM102.999 0.801999C101.886 0.801999 101.081 1.30571 100.565 2.05804C100.056 2.79989 99.8328 3.77185 99.8328 4.724H100.333C100.333 3.84015 100.542 2.97611 100.977 2.34096C101.406 1.71629 102.06 1.302 102.999 1.302V0.801999ZM99.8328 4.724C99.8328 6.15126 100.321 7.52941 101.168 8.8546L101.589 8.5854C100.78 7.31859 100.333 6.03274 100.333 4.724H99.8328ZM101.169 8.85663L106.173 16.5246L106.592 16.2514L101.588 8.58337L101.169 8.85663ZM106.173 16.5247C107.309 18.2629 107.861 19.8356 107.861 21.356H108.361C108.361 19.7084 107.761 18.0411 106.592 16.2513L106.173 16.5247ZM107.861 21.356C107.861 22.7372 107.387 23.894 106.559 24.7054C105.73 25.517 104.528 26.002 103.035 26.002V26.502C104.638 26.502 105.973 25.979 106.909 25.0626C107.844 24.146 108.361 22.8548 108.361 21.356H107.861ZM103.035 26.002C100.042 26.002 97.9928 24.1012 97.9928 21.752H97.4928C97.4928 24.4428 99.8359 26.502 103.035 26.502V26.002ZM97.9928 21.752V20.852H97.4928V21.752H97.9928ZM97.7428 21.102H99.5788V20.602H97.7428V21.102ZM99.3288 20.852V21.572H99.8288V20.852H99.3288ZM99.3288 21.572C99.3288 22.743 99.6164 23.8449 100.229 24.6607C100.849 25.4853 101.788 25.998 103.035 25.998V25.498C101.942 25.498 101.153 25.0567 100.629 24.3603C100.099 23.6551 99.8288 22.669 99.8288 21.572H99.3288ZM103.035 25.998C104.284 25.998 105.181 25.4831 105.756 24.6528C106.322 23.8354 106.561 22.7347 106.561 21.572H106.061C106.061 22.6773 105.832 23.6646 105.345 24.3682C104.867 25.0589 104.126 25.498 103.035 25.498V25.998ZM106.561 21.572C106.561 20.1397 106.033 18.6161 104.9 16.8984L104.482 17.1736C105.581 18.8399 106.061 20.2683 106.061 21.572H106.561ZM104.9 16.8998L99.8965 9.19582L99.4772 9.46818L104.481 17.1722L104.9 16.8998ZM99.8971 9.19681C98.9494 7.72254 98.6048 6.54507 98.6048 4.976H98.1048C98.1048 6.64693 98.4803 7.91746 99.4765 9.46719L99.8971 9.19681ZM98.6048 4.976C98.6048 3.74374 99.0571 2.70351 99.8236 1.9707C100.591 1.23719 101.688 0.797999 102.999 0.797999V0.297999C101.574 0.297999 100.349 0.77681 99.4781 1.6093C98.6066 2.44249 98.1048 3.61626 98.1048 4.976H98.6048ZM102.999 0.797999C104.963 0.797999 106.214 1.68842 106.889 2.80158L107.317 2.54242C106.551 1.27958 105.138 0.297999 102.999 0.297999V0.797999ZM106.976 2.45633L105.932 3.06832L106.185 3.49967L107.229 2.88767L106.976 2.45633Z"/>
</svg>
