<?xml version="1.0" encoding="UTF-8" standalone="no"?><!DOCTYPE svg PUBLIC "-//W3C//DTD SVG 1.1//EN" "http://www.w3.org/Graphics/SVG/1.1/DTD/svg11.dtd"><svg width="100%" height="100%" viewBox="0 0 218 53" version="1.1" xmlns="http://www.w3.org/2000/svg" xmlns:xlink="http://www.w3.org/1999/xlink" xml:space="preserve" xmlns:serif="http://www.serif.com/" style="fill-rule:evenodd;clip-rule:evenodd;stroke-linejoin:round;stroke-miterlimit:1.41421;"><path d="M12.528,2.108l8.352,0l0,-1.008l-20.16,0l0,1.008l8.352,0l0,46.296c0,1.152 -0.072,1.8 -0.72,3.096l4.896,0c-0.648,-1.296 -0.72,-1.944 -0.72,-3.096l0,-46.296Zm29.65,28.368l0,21.024l4.176,0c-0.648,-1.296 -0.72,-1.944 -0.72,-3.096l0,-47.304l-3.456,0l0,28.368l-13.536,0l0,-28.368l-3.456,0l0,50.4l3.456,0l0,-21.024l13.536,0Zm15.168,20.016l0,-26.28l12.528,0l0,-1.008l-12.528,0l0,-21.096l12.528,0l0,-1.008l-16.704,0c0.648,1.296 0.72,1.944 0.72,3.096l0,47.304l20.304,0c1.224,0 2.16,-0.288 3.168,-1.08l-0.576,-0.792c-0.864,0.576 -1.8,0.864 -2.88,0.864l-16.56,0Zm35.496,1.008c-0.864,-1.224 -1.008,-2.304 -1.152,-3.168l-8.352,-45c-0.216,-1.224 -1.296,-2.232 -2.52,-2.232l-3.312,0c0.648,1.368 0.72,2.232 0.36,4.32l-6.912,39.168l1.008,0l1.224,-6.84l13.032,0l1.944,10.584c0.216,1.08 0.216,1.944 -0.288,3.168l4.968,0Zm-6.84,-14.76l-12.6,0l6.12,-34.272c0,0 0,-0.072 0.072,-0.072c0.072,0 0.072,0.072 0.072,0.072l6.336,34.272Zm20.112,-34.632l8.352,0l0,-1.008l-20.16,0l0,1.008l8.352,0l0,46.296c0,1.152 -0.072,1.8 -0.72,3.096l4.896,0c-0.648,-1.296 -0.72,-1.944 -0.72,-3.096l0,-46.296Zm57.37,46.872c-2.232,1.512 -4.752,2.232 -8.352,2.232c-6.768,0 -10.872,-4.176 -14.976,-9.864c-4.536,-6.264 -7.56,-9.864 -11.952,-11.232c6.048,-1.296 10.224,-6.48 10.224,-14.328c0,-9.144 -5.04,-14.688 -13.392,-14.688l-6.264,0c0.648,1.296 0.72,1.944 0.72,3.096l0,47.304l3.456,0l0,-21.024l0.504,0c6.552,0 7.776,4.68 13.608,12.528c4.896,6.624 9.648,9.36 17.568,9.36c3.528,0 6.768,-0.792 9.432,-2.52l-0.576,-0.864Zm-17.352,-7.848l15.408,0l0,-1.008l-11.952,0l0,-22.392l11.952,0l0,-1.008l-11.952,0l0,-14.616l11.952,0l0,-1.008l-16.128,0c0.648,1.296 0.72,1.944 0.72,3.096l0,36.936Zm-23.184,-11.664l0,-27.36l1.224,0c7.92,0 10.512,5.4 10.512,13.68c0,8.28 -3.312,13.68 -10.512,13.68l-1.224,0Zm45.393,22.32c1.152,0 2.088,-0.936 2.088,-2.088c0,-1.152 -0.936,-2.088 -2.088,-2.088c-1.153,0 -2.088,0.936 -2.088,2.088c0,1.152 0.935,2.088 2.088,2.088Zm22.799,-50.688l-3.456,0l0,40.464c0,4.536 -1.44,9.432 -6.912,9.432c-3.024,0 -4.968,-1.8 -6.12,-4.464l-2.088,1.224c1.44,2.376 4.104,4.248 8.208,4.248c6.552,0 10.368,-4.104 10.368,-10.08l0,-40.824Zm22.418,4.968c-1.152,-2.664 -3.096,-4.464 -6.12,-4.464c-4.104,0 -5.832,3.672 -5.832,7.344c0,2.736 0.936,5.4 2.592,7.992l10.008,15.336c2.304,3.528 3.456,6.768 3.456,9.936c0,5.76 -3.96,9.792 -10.152,9.792c-6.192,0 -10.584,-3.96 -10.584,-9l0,-1.8l3.672,0l0,1.44c0,4.536 2.232,8.352 6.912,8.352c4.68,0 6.552,-3.816 6.552,-8.352c0,-2.736 -1.008,-5.688 -3.24,-9.072l-10.008,-15.408c-1.944,-3.024 -2.664,-5.472 -2.664,-8.712c0,-5.184 3.816,-8.856 9.288,-8.856c4.104,0 6.768,1.872 8.208,4.248l-2.088,1.224Z" style="fill-rule:nonzero;"/><path d="M12.528,2.108l0,-0.25l-0.25,0l0,0.25l0.25,0Zm8.352,0l0,0.25l0.25,0l0,-0.25l-0.25,0Zm0,-1.008l0.25,0l0,-0.25l-0.25,0l0,0.25Zm-20.16,0l0,-0.25l-0.25,0l0,0.25l0.25,0Zm0,1.008l-0.25,0l0,0.25l0.25,0l0,-0.25Zm8.352,0l0.25,0l0,-0.25l-0.25,0l0,0.25Zm-0.72,49.392l-0.224,-0.112l-0.181,0.362l0.405,0l0,-0.25Zm4.896,0l0,0.25l0.404,0l-0.18,-0.362l-0.224,0.112Zm-0.72,-49.142l8.352,0l0,-0.5l-8.352,0l0,0.5Zm8.602,-0.25l0,-1.008l-0.5,0l0,1.008l0.5,0Zm-0.25,-1.258l-20.16,0l0,0.5l20.16,0l0,-0.5Zm-20.41,0.25l0,1.008l0.5,0l0,-1.008l-0.5,0Zm0.25,1.258l8.352,0l0,-0.5l-8.352,0l0,0.5Zm8.102,-0.25l0,46.296l0.5,0l0,-46.296l-0.5,0Zm0,46.296c0,0.572 -0.018,1.001 -0.112,1.442c-0.093,0.441 -0.263,0.906 -0.582,1.542l0.448,0.224c0.329,-0.66 0.519,-1.167 0.624,-1.662c0.104,-0.495 0.122,-0.966 0.122,-1.546l-0.5,0Zm-0.47,3.346l4.896,0l0,-0.5l-4.896,0l0,0.5Zm5.12,-0.362c-0.319,-0.636 -0.489,-1.101 -0.582,-1.542c-0.094,-0.441 -0.112,-0.87 -0.112,-1.442l-0.5,0c0,0.58 0.018,1.051 0.122,1.546c0.105,0.495 0.295,1.002 0.624,1.662l0.448,-0.224Zm-0.694,-2.984l0,-46.296l-0.5,0l0,46.296l0.5,0Zm29.4,-17.928l0.25,0l0,-0.25l-0.25,0l0,0.25Zm0,21.024l-0.25,0l0,0.25l0.25,0l0,-0.25Zm4.176,0l0,0.25l0.404,0l-0.181,-0.362l-0.223,0.112Zm-0.72,-50.4l0.25,0l0,-0.25l-0.25,0l0,0.25Zm-3.456,0l0,-0.25l-0.25,0l0,0.25l0.25,0Zm0,28.368l0,0.25l0.25,0l0,-0.25l-0.25,0Zm-13.536,0l-0.25,0l0,0.25l0.25,0l0,-0.25Zm0,-28.368l0.25,0l0,-0.25l-0.25,0l0,0.25Zm-3.456,0l0,-0.25l-0.25,0l0,0.25l0.25,0Zm0,50.4l-0.25,0l0,0.25l0.25,0l0,-0.25Zm3.456,0l0,0.25l0.25,0l0,-0.25l-0.25,0Zm0,-21.024l0,-0.25l-0.25,0l0,0.25l0.25,0Zm13.286,0l0,21.024l0.5,0l0,-21.024l-0.5,0Zm0.25,21.274l4.176,0l0,-0.5l-4.176,0l0,0.5Zm4.399,-0.362c-0.318,-0.636 -0.488,-1.101 -0.582,-1.542c-0.093,-0.441 -0.111,-0.87 -0.111,-1.442l-0.5,0c0,0.58 0.018,1.051 0.122,1.546c0.105,0.495 0.294,1.002 0.624,1.662l0.447,-0.224Zm-0.693,-2.984l0,-47.304l-0.5,0l0,47.304l0.5,0Zm-0.25,-47.554l-3.456,0l0,0.5l3.456,0l0,-0.5Zm-3.706,0.25l0,28.368l0.5,0l0,-28.368l-0.5,0Zm0.25,28.118l-13.536,0l0,0.5l13.536,0l0,-0.5Zm-13.286,0.25l0,-28.368l-0.5,0l0,28.368l0.5,0Zm-0.25,-28.618l-3.456,0l0,0.5l3.456,0l0,-0.5Zm-3.706,0.25l0,50.4l0.5,0l0,-50.4l-0.5,0Zm0.25,50.65l3.456,0l0,-0.5l-3.456,0l0,0.5Zm3.706,-0.25l0,-21.024l-0.5,0l0,21.024l0.5,0Zm-0.25,-20.774l13.536,0l0,-0.5l-13.536,0l0,0.5Zm28.704,19.766l-0.25,0l0,0.25l0.25,0l0,-0.25Zm0,-26.28l0,-0.25l-0.25,0l0,0.25l0.25,0Zm12.528,0l0,0.25l0.25,0l0,-0.25l-0.25,0Zm0,-1.008l0.25,0l0,-0.25l-0.25,0l0,0.25Zm-12.528,0l-0.25,0l0,0.25l0.25,0l0,-0.25Zm0,-21.096l0,-0.25l-0.25,0l0,0.25l0.25,0Zm12.528,0l0,0.25l0.25,0l0,-0.25l-0.25,0Zm0,-1.008l0.25,0l0,-0.25l-0.25,0l0,0.25Zm-16.704,0l0,-0.25l-0.404,0l0.181,0.362l0.223,-0.112Zm0.72,50.4l-0.25,0l0,0.25l0.25,0l0,-0.25Zm23.472,-1.08l0.155,0.197l0.189,-0.149l-0.142,-0.195l-0.202,0.147Zm-0.576,-0.792l0.202,-0.147l-0.141,-0.194l-0.199,0.133l0.138,0.208Zm16.056,1.872l0,0.25l0.483,0l-0.278,-0.394l-0.205,0.144Zm-1.152,-3.168l0.247,-0.041l-0.001,-0.005l-0.246,0.046Zm-8.352,-45l-0.246,0.043l0,0.003l0.246,-0.046Zm-5.832,-2.232l0,-0.25l-0.395,0l0.169,0.357l0.226,-0.107Zm0.36,4.32l0.246,0.043l0.001,-0.001l-0.247,-0.042Zm-6.912,39.168l-0.246,-0.043l-0.052,0.293l0.298,0l0,-0.25Zm1.008,0l0,0.25l0.209,0l0.037,-0.206l-0.246,-0.044Zm1.224,-6.84l0,-0.25l-0.209,0l-0.037,0.206l0.246,0.044Zm13.032,0l0.246,-0.045l-0.037,-0.205l-0.209,0l0,0.25Zm1.944,10.584l-0.246,0.045l0.001,0.004l0.245,-0.049Zm-0.288,3.168l-0.231,-0.095l-0.142,0.345l0.373,0l0,-0.25Zm-1.872,-14.76l0,0.25l0.301,0l-0.055,-0.295l-0.246,0.045Zm-12.6,0l-0.246,-0.044l-0.052,0.294l0.298,0l0,-0.25Zm6.12,-34.272l0.246,0.044l0.004,-0.022l0,-0.022l-0.25,0Zm0.144,0l-0.25,0l0,0.023l0.004,0.022l0.246,-0.045Zm-22.07,48.024l0,-26.28l-0.5,0l0,26.28l0.5,0Zm-0.25,-26.03l12.528,0l0,-0.5l-12.528,0l0,0.5Zm12.778,-0.25l0,-1.008l-0.5,0l0,1.008l0.5,0Zm-0.25,-1.258l-12.528,0l0,0.5l12.528,0l0,-0.5Zm-12.278,0.25l0,-21.096l-0.5,0l0,21.096l0.5,0Zm-0.25,-20.846l12.528,0l0,-0.5l-12.528,0l0,0.5Zm12.778,-0.25l0,-1.008l-0.5,0l0,1.008l0.5,0Zm-0.25,-1.258l-16.704,0l0,0.5l16.704,0l0,-0.5Zm-16.927,0.362c0.318,0.636 0.489,1.101 0.582,1.542c0.093,0.441 0.111,0.87 0.111,1.442l0.5,0c0,-0.58 -0.018,-1.051 -0.122,-1.546c-0.105,-0.495 -0.294,-1.002 -0.624,-1.662l-0.447,0.224Zm0.693,2.984l0,47.304l0.5,0l0,-47.304l-0.5,0Zm0.25,47.554l20.304,0l0,-0.5l-20.304,0l0,0.5Zm20.304,0c1.276,0 2.268,-0.304 3.323,-1.133l-0.309,-0.394c-0.961,0.755 -1.842,1.027 -3.014,1.027l0,0.5Zm3.37,-1.477l-0.576,-0.792l-0.404,0.294l0.576,0.792l0.404,-0.294Zm-0.916,-0.853c-0.823,0.548 -1.711,0.822 -2.742,0.822l0,0.5c1.129,0 2.114,-0.303 3.019,-0.906l-0.277,-0.416Zm-2.742,0.822l-16.56,0l0,0.5l16.56,0l0,-0.5Zm19.141,1.114c-0.828,-1.173 -0.966,-2.2 -1.11,-3.065l-0.493,0.082c0.144,0.863 0.294,1.996 1.194,3.271l0.409,-0.288Zm-1.111,-3.07l-8.352,-45l-0.492,0.092l8.352,45l0.492,-0.092Zm-8.352,-44.997c-0.234,-1.329 -1.406,-2.439 -2.766,-2.439l0,0.5c1.088,0 2.076,0.906 2.274,2.025l0.492,-0.086Zm-2.766,-2.439l-3.312,0l0,0.5l3.312,0l0,-0.5Zm-3.538,0.357c0.316,0.667 0.484,1.195 0.535,1.804c0.051,0.615 -0.016,1.328 -0.195,2.367l0.493,0.084c0.18,-1.049 0.257,-1.812 0.2,-2.493c-0.057,-0.687 -0.249,-1.275 -0.581,-1.976l-0.452,0.214Zm0.34,4.17l-6.912,39.168l0.492,0.086l6.912,-39.168l-0.492,-0.086Zm-6.666,39.461l1.008,0l0,-0.5l-1.008,0l0,0.5Zm1.254,-0.206l1.224,-6.84l-0.492,-0.088l-1.224,6.84l0.492,0.088Zm0.978,-6.634l13.032,0l0,-0.5l-13.032,0l0,0.5Zm12.786,-0.205l1.944,10.584l0.492,-0.09l-1.944,-10.584l-0.492,0.09Zm1.945,10.588c0.208,1.041 0.208,1.853 -0.274,3.024l0.462,0.19c0.526,-1.277 0.526,-2.193 0.302,-3.312l-0.49,0.098Zm-0.043,3.369l4.968,0l0,-0.5l-4.968,0l0,0.5Zm-1.872,-15.26l-12.6,0l0,0.5l12.6,0l0,-0.5Zm-12.354,0.294l6.12,-34.272l-0.492,-0.088l-6.12,34.272l0.492,0.088Zm5.874,-34.316c0.25,0 0.25,0 0.25,0l0,0.004c0,0.001 0,0.002 0,0.004c0,0.002 0,0.004 0,0.007c-0.001,0.004 -0.001,0.009 -0.002,0.015c-0.002,0.009 -0.005,0.026 -0.015,0.046c-0.01,0.02 -0.03,0.049 -0.064,0.071c-0.035,0.024 -0.071,0.031 -0.097,0.031l0,-0.5c-0.061,0 -0.124,0.016 -0.18,0.053c-0.054,0.036 -0.087,0.083 -0.106,0.121c-0.019,0.038 -0.027,0.073 -0.031,0.096c-0.002,0.012 -0.003,0.022 -0.004,0.031c0,0.004 0,0.008 -0.001,0.012c0,0.002 0,0.003 0,0.005l0,0.004c0,0 0,0 0.25,0Zm0.072,0.178c-0.025,0 -0.061,-0.007 -0.097,-0.031c-0.034,-0.022 -0.053,-0.051 -0.063,-0.071c-0.01,-0.02 -0.014,-0.037 -0.015,-0.046c-0.001,-0.006 -0.002,-0.011 -0.002,-0.015c0,-0.003 -0.001,-0.005 -0.001,-0.007c0,-0.002 0,-0.003 0,-0.004l0,-0.004c0,0 0,0 0.25,0c0.25,0 0.25,0 0.25,0l0,-0.004c0,-0.002 0,-0.003 0,-0.005c0,-0.004 0,-0.008 -0.001,-0.012c0,-0.009 -0.001,-0.019 -0.003,-0.031c-0.004,-0.023 -0.012,-0.058 -0.031,-0.096c-0.019,-0.038 -0.052,-0.085 -0.106,-0.121c-0.056,-0.037 -0.119,-0.053 -0.181,-0.053l0,0.5Zm-0.174,-0.133l6.336,34.272l0.492,-0.091l-6.336,-34.271l-0.492,0.09Zm26.694,-0.405l0,-0.25l-0.25,0l0,0.25l0.25,0Zm8.352,0l0,0.25l0.25,0l0,-0.25l-0.25,0Zm0,-1.008l0.25,0l0,-0.25l-0.25,0l0,0.25Zm-20.16,0l0,-0.25l-0.25,0l0,0.25l0.25,0Zm0,1.008l-0.25,0l0,0.25l0.25,0l0,-0.25Zm8.352,0l0.25,0l0,-0.25l-0.25,0l0,0.25Zm-0.72,49.392l-0.224,-0.112l-0.181,0.362l0.405,0l0,-0.25Zm4.896,0l0,0.25l0.404,0l-0.18,-0.362l-0.224,0.112Zm-0.72,-49.142l8.352,0l0,-0.5l-8.352,0l0,0.5Zm8.602,-0.25l0,-1.008l-0.5,0l0,1.008l0.5,0Zm-0.25,-1.258l-20.16,0l0,0.5l20.16,0l0,-0.5Zm-20.41,0.25l0,1.008l0.5,0l0,-1.008l-0.5,0Zm0.25,1.258l8.352,0l0,-0.5l-8.352,0l0,0.5Zm8.102,-0.25l0,46.296l0.5,0l0,-46.296l-0.5,0Zm0,46.296c0,0.572 -0.018,1.001 -0.112,1.442c-0.093,0.441 -0.263,0.906 -0.582,1.542l0.448,0.224c0.329,-0.66 0.519,-1.167 0.624,-1.662c0.104,-0.495 0.122,-0.966 0.122,-1.546l-0.5,0Zm-0.47,3.346l4.896,0l0,-0.5l-4.896,0l0,0.5Zm5.12,-0.362c-0.319,-0.636 -0.489,-1.101 -0.582,-1.542c-0.094,-0.441 -0.112,-0.87 -0.112,-1.442l-0.5,0c0,0.58 0.018,1.051 0.122,1.546c0.105,0.495 0.295,1.002 0.624,1.662l0.448,-0.224Zm-0.694,-2.984l0,-46.296l-0.5,0l0,46.296l0.5,0Zm57.12,0.576l0.208,-0.139l-0.14,-0.209l-0.208,0.141l0.14,0.207Zm-23.328,-7.632l0.203,-0.146l-0.001,-0.001l-0.202,0.147Zm-11.952,-11.232l-0.053,-0.244l-0.931,0.199l0.91,0.284l0.074,-0.239Zm-9.432,-29.016l0,-0.25l-0.405,0l0.181,0.362l0.224,-0.112Zm0.72,50.4l-0.25,0l0,0.25l0.25,0l0,-0.25Zm3.456,0l0,0.25l0.25,0l0,-0.25l-0.25,0Zm0,-21.024l0,-0.25l-0.25,0l0,0.25l0.25,0Zm14.112,12.528l0.201,-0.149l0,0l-0.201,0.149Zm27,6.84l0.136,0.21l0.212,-0.138l-0.14,-0.211l-0.208,0.139Zm-17.928,-8.712l-0.25,0l0,0.25l0.25,0l0,-0.25Zm15.408,0l0,0.25l0.25,0l0,-0.25l-0.25,0Zm0,-1.008l0.25,0l0,-0.25l-0.25,0l0,0.25Zm-11.952,0l-0.25,0l0,0.25l0.25,0l0,-0.25Zm0,-22.392l0,-0.25l-0.25,0l0,0.25l0.25,0Zm11.952,0l0,0.25l0.25,0l0,-0.25l-0.25,0Zm0,-1.008l0.25,0l0,-0.25l-0.25,0l0,0.25Zm-11.952,0l-0.25,0l0,0.25l0.25,0l0,-0.25Zm0,-14.616l0,-0.25l-0.25,0l0,0.25l0.25,0Zm11.952,0l0,0.25l0.25,0l0,-0.25l-0.25,0Zm0,-1.008l0.25,0l0,-0.25l-0.25,0l0,0.25Zm-16.128,0l0,-0.25l-0.405,0l0.181,0.362l0.224,-0.112Zm-22.464,28.368l-0.25,0l0,0.25l0.25,0l0,-0.25Zm0,-27.36l0,-0.25l-0.25,0l0,0.25l0.25,0Zm40.396,46.665c-2.182,1.478 -4.65,2.189 -8.212,2.189l0,0.5c3.638,0 6.21,-0.729 8.492,-2.275l-0.28,-0.414Zm-8.212,2.189c-6.637,0 -10.676,-4.081 -14.773,-9.76l-0.406,0.292c4.11,5.697 8.28,9.968 15.179,9.968l0,-0.5Zm-14.774,-9.761c-4.527,-6.252 -7.596,-9.927 -12.08,-11.324l-0.148,0.478c4.3,1.339 7.279,4.864 11.823,11.14l0.405,-0.294Zm-12.102,-10.841c6.181,-1.324 10.422,-6.626 10.422,-14.572l-0.5,0c0,7.749 -4.112,12.816 -10.027,14.083l0.105,0.489Zm10.422,-14.572c0,-4.616 -1.273,-8.355 -3.629,-10.941c-2.36,-2.59 -5.779,-3.997 -10.013,-3.997l0,0.5c4.118,0 7.394,1.365 9.643,3.833c2.251,2.472 3.499,6.077 3.499,10.605l0.5,0Zm-13.642,-14.938l-6.264,0l0,0.5l6.264,0l0,-0.5Zm-6.488,0.362c0.318,0.636 0.489,1.101 0.582,1.542c0.094,0.441 0.112,0.87 0.112,1.442l0.5,0c0,-0.58 -0.018,-1.051 -0.123,-1.546c-0.104,-0.495 -0.294,-1.002 -0.624,-1.662l-0.447,0.224Zm0.694,2.984l0,47.304l0.5,0l0,-47.304l-0.5,0Zm0.25,47.554l3.456,0l0,-0.5l-3.456,0l0,0.5Zm3.706,-0.25l0,-21.024l-0.5,0l0,21.024l0.5,0Zm-0.25,-20.774l0.504,0l0,-0.5l-0.504,0l0,0.5Zm0.504,0c1.607,0 2.872,0.287 3.959,0.828c1.088,0.541 2.012,1.346 2.926,2.406c0.915,1.063 1.812,2.371 2.85,3.915c1.036,1.541 2.21,3.31 3.672,5.278l0.402,-0.298c-1.454,-1.956 -2.621,-3.715 -3.659,-5.259c-1.036,-1.54 -1.948,-2.874 -2.887,-3.962c-0.94,-1.091 -1.915,-1.947 -3.081,-2.528c-1.168,-0.582 -2.513,-0.88 -4.182,-0.88l0,0.5Zm13.407,12.427c2.46,3.329 4.898,5.699 7.732,7.235c2.835,1.536 6.047,2.226 10.037,2.226l0,-0.5c-3.93,0 -7.055,-0.679 -9.799,-2.166c-2.747,-1.488 -5.133,-3.798 -7.568,-7.093l-0.402,0.298Zm17.769,9.461c3.564,0 6.855,-0.8 9.568,-2.56l-0.272,-0.42c-2.615,1.696 -5.805,2.48 -9.296,2.48l0,0.5Zm9.64,-2.909l-0.576,-0.864l-0.416,0.278l0.576,0.864l0.416,-0.278Zm-18.136,-8.323l15.408,0l0,-0.5l-15.408,0l0,0.5Zm15.658,-0.25l0,-1.008l-0.5,0l0,1.008l0.5,0Zm-0.25,-1.258l-11.952,0l0,0.5l11.952,0l0,-0.5Zm-11.702,0.25l0,-22.392l-0.5,0l0,22.392l0.5,0Zm-0.25,-22.142l11.952,0l0,-0.5l-11.952,0l0,0.5Zm12.202,-0.25l0,-1.008l-0.5,0l0,1.008l0.5,0Zm-0.25,-1.258l-11.952,0l0,0.5l11.952,0l0,-0.5Zm-11.702,0.25l0,-14.616l-0.5,0l0,14.616l0.5,0Zm-0.25,-14.366l11.952,0l0,-0.5l-11.952,0l0,0.5Zm12.202,-0.25l0,-1.008l-0.5,0l0,1.008l0.5,0Zm-0.25,-1.258l-16.128,0l0,0.5l16.128,0l0,-0.5Zm-16.352,0.362c0.318,0.636 0.489,1.101 0.582,1.542c0.094,0.441 0.112,0.87 0.112,1.442l0.5,0c0,-0.58 -0.018,-1.051 -0.123,-1.546c-0.104,-0.495 -0.294,-1.002 -0.624,-1.662l-0.447,0.224Zm0.694,2.984l0,36.936l0.5,0l0,-36.936l-0.5,0Zm-22.684,25.272l0,-27.36l-0.5,0l0,27.36l0.5,0Zm-0.25,-27.11l1.224,0l0,-0.5l-1.224,0l0,0.5Zm1.224,0c3.896,0 6.438,1.323 8.02,3.627c1.595,2.322 2.242,5.68 2.242,9.803l0.5,0c0,-4.157 -0.649,-7.639 -2.33,-10.087c-1.694,-2.466 -4.408,-3.843 -8.432,-3.843l0,0.5Zm10.262,13.43c0,4.113 -0.824,7.473 -2.509,9.798c-1.675,2.313 -4.224,3.632 -7.753,3.632l0,0.5c3.671,0 6.378,-1.381 8.158,-3.838c1.771,-2.445 2.604,-5.925 2.604,-10.092l-0.5,0Zm-10.262,13.43l-1.224,0l0,0.5l1.224,0l0,-0.5Zm44.168,22.82c1.291,0 2.338,-1.048 2.338,-2.338l-0.5,0c0,1.014 -0.824,1.838 -1.838,1.838l0,0.5Zm2.338,-2.338c0,-1.29 -1.047,-2.338 -2.338,-2.338l0,0.5c1.014,0 1.838,0.824 1.838,1.838l0.5,0Zm-2.338,-2.338c-1.29,0 -2.337,1.048 -2.337,2.338l0.5,0c0,-1.014 0.824,-1.838 1.837,-1.838l0,-0.5Zm-2.337,2.338c0,1.29 1.047,2.338 2.337,2.338l0,-0.5c-1.013,0 -1.837,-0.824 -1.837,-1.838l-0.5,0Zm25.137,-48.6l0.25,0l0,-0.25l-0.25,0l0,0.25Zm-3.456,0l0,-0.25l-0.25,0l0,0.25l0.25,0Zm-13.032,45.432l0.229,-0.099l-0.112,-0.26l-0.244,0.143l0.127,0.216Zm-2.088,1.224l-0.127,-0.216l-0.219,0.129l0.132,0.217l0.214,-0.13Zm18.576,-46.906l-3.456,0l0,0.5l3.456,0l0,-0.5Zm-3.706,0.25l0,40.464l0.5,0l0,-40.464l-0.5,0Zm0,40.464c0,2.249 -0.359,4.556 -1.37,6.291c-1.001,1.717 -2.648,2.891 -5.292,2.891l0,0.5c2.828,0 4.637,-1.274 5.724,-3.139c1.076,-1.846 1.438,-4.256 1.438,-6.543l-0.5,0Zm-6.662,9.182c-1.459,0 -2.646,-0.433 -3.609,-1.18c-0.966,-0.751 -1.717,-1.828 -2.282,-3.133l-0.459,0.198c0.588,1.359 1.384,2.514 2.434,3.329c1.054,0.819 2.35,1.286 3.916,1.286l0,-0.5Zm-6.247,-4.43l-2.088,1.224l0.253,0.432l2.088,-1.224l-0.253,-0.432Zm-2.175,1.57c1.485,2.45 4.23,4.368 8.422,4.368l0,-0.5c-4.017,0 -6.6,-1.826 -7.994,-4.128l-0.428,0.26Zm8.422,4.368c3.329,0 5.989,-1.044 7.818,-2.872c1.828,-1.828 2.8,-4.416 2.8,-7.458l-0.5,0c0,2.934 -0.936,5.386 -2.654,7.104c-1.718,1.718 -4.241,2.726 -7.464,2.726l0,0.5Zm10.618,-10.33l0,-40.824l-0.5,0l0,40.824l0.5,0Zm22.168,-35.856l-0.23,0.099l0.112,0.26l0.244,-0.143l-0.126,-0.216Zm-9.36,10.872l-0.211,0.135l0.001,0.002l0.21,-0.137Zm10.008,15.336l-0.21,0.137l0,0l0.21,-0.137Zm-17.28,8.928l0,-0.25l-0.25,0l0,0.25l0.25,0Zm3.672,0l0.25,0l0,-0.25l-0.25,0l0,0.25Zm10.224,-7.632l-0.21,0.136l0.001,0.002l0.209,-0.138Zm-10.008,-15.408l-0.211,0.135l0.001,0.001l0.21,-0.136Zm14.832,-13.32l0.126,0.216l0.219,-0.129l-0.132,-0.217l-0.213,0.13Zm-1.859,1.125c-0.588,-1.359 -1.384,-2.514 -2.434,-3.329c-1.053,-0.819 -2.35,-1.286 -3.915,-1.286l0,0.5c1.458,0 2.646,0.433 3.608,1.18c0.966,0.751 1.718,1.828 2.282,3.133l0.459,-0.198Zm-6.349,-4.615c-2.14,0 -3.673,0.963 -4.661,2.404c-0.982,1.43 -1.421,3.32 -1.421,5.19l0.5,0c0,-1.802 0.424,-3.584 1.333,-4.908c0.901,-1.313 2.284,-2.186 4.249,-2.186l0,-0.5Zm-6.082,7.594c0,2.795 0.956,5.505 2.631,8.127l0.421,-0.27c-1.637,-2.562 -2.552,-5.18 -2.552,-7.857l-0.5,0Zm2.632,8.129l10.008,15.336l0.419,-0.274l-10.008,-15.336l-0.419,0.274Zm10.008,15.336c2.287,3.502 3.416,6.695 3.416,9.799l0.5,0c0,-3.232 -1.176,-6.519 -3.497,-10.073l-0.419,0.274Zm3.416,9.799c0,2.821 -0.969,5.202 -2.679,6.877c-1.711,1.676 -4.183,2.665 -7.223,2.665l0,0.5c3.151,0 5.755,-1.027 7.573,-2.807c1.817,-1.781 2.829,-4.296 2.829,-7.235l-0.5,0Zm-9.902,9.542c-6.089,0 -10.334,-3.881 -10.334,-8.75l-0.5,0c0,5.211 4.539,9.25 10.834,9.25l0,-0.5Zm-10.334,-8.75l0,-1.8l-0.5,0l0,1.8l0.5,0Zm-0.25,-1.55l3.672,0l0,-0.5l-3.672,0l0,0.5Zm3.422,-0.25l0,1.44l0.5,0l0,-1.44l-0.5,0Zm0,1.44c0,2.305 0.566,4.451 1.751,6.027c1.191,1.585 2.994,2.575 5.411,2.575l0,-0.5c-2.263,0 -3.917,-0.918 -5.012,-2.375c-1.101,-1.466 -1.65,-3.496 -1.65,-5.727l-0.5,0Zm7.162,8.602c2.419,0 4.135,-0.992 5.236,-2.583c1.093,-1.578 1.566,-3.722 1.566,-6.019l-0.5,0c0,2.239 -0.463,4.271 -1.477,5.735c-1.005,1.451 -2.564,2.367 -4.825,2.367l0,0.5Zm6.802,-8.602c0,-2.8 -1.033,-5.8 -3.282,-9.21l-0.417,0.276c2.215,3.358 3.199,6.262 3.199,8.934l0.5,0Zm-3.281,-9.208l-10.008,-15.408l-0.419,0.272l10.008,15.408l0.419,-0.272Zm-10.007,-15.407c-1.92,-2.987 -2.624,-5.388 -2.624,-8.577l-0.5,0c0,3.291 0.735,5.785 2.703,8.847l0.421,-0.27Zm-2.624,-8.577c0,-2.528 0.929,-4.675 2.514,-6.191c1.587,-1.517 3.844,-2.415 6.524,-2.415l0,-0.5c-2.793,0 -5.179,0.938 -6.869,2.553c-1.691,1.616 -2.669,3.897 -2.669,6.553l0.5,0Zm9.038,-8.606c4.016,0 6.599,1.826 7.994,4.128l0.427,-0.26c-1.485,-2.45 -4.23,-4.368 -8.421,-4.368l0,0.5Zm8.081,3.782l-2.088,1.224l0.253,0.432l2.088,-1.224l-0.253,-0.432Z" style="fill-rule:nonzero;stroke:#000;stroke-width:1px;"/></svg>